<svg xmlns="http://www.w3.org/2000/svg"
     width="40" height="40"
     viewBox="0 0 24 24"
     fill="white">
  <path d="M23 7s-.2-1.6-.8-2.3c-.8-.8-1.7-.8-2.1-.9
           C17.2 3.5 12 3.5 12 3.5h0s-5.2 0-8.1.3
           c-.4.1-1.3.1-2.1.9C1.2 5.4 1 7 1 7
           s-.3 1.9-.3 3.8v1.8c0 1.9.3 3.8.3 3.8
           s.2 1.6.8 2.3c.8.8 1.9.8 2.4.9
           1.7.2 7.8.3 7.8.3s5.2 0 8.1-.3
           c.4-.1 1.3-.1 2.1-.9.6-.7.8-2.3.8-2.3
           s.3-1.9.3-3.8v-1.8c0-1.9-.3-3.8-.3-3.8z"/>
  <polygon points="9.5,8 16,12 9.5,16"/>
</svg>
